<svg xmlns="http://www.w3.org/2000/svg" xmlns:xlink="http://www.w3.org/1999/xlink" viewBox="0 0 469.28 395.87"><defs><style>.cls-1,.cls-23,.cls-24,.cls-25{fill:none;}.cls-2{clip-path:url(#clip-path);}.cls-3{fill:url(#Dégradé_sans_nom_10);}.cls-4{fill:url(#Dégradé_sans_nom_10-2);}.cls-5{fill:url(#Dégradé_sans_nom_10-3);}.cls-6{fill:url(#Dégradé_sans_nom_10-4);}.cls-7{fill:url(#Dégradé_sans_nom_10-5);}.cls-8{fill:url(#Dégradé_sans_nom_10-6);}.cls-9{fill:url(#Dégradé_sans_nom_10-7);}.cls-10{fill:url(#Dégradé_sans_nom_10-8);}.cls-11{fill:url(#Dégradé_sans_nom_10-9);}.cls-12{fill:url(#Dégradé_sans_nom_10-10);}.cls-13{fill:url(#Dégradé_sans_nom_10-11);}.cls-14{fill:url(#Dégradé_sans_nom_10-12);}.cls-15{fill:url(#Dégradé_sans_nom_10-13);}.cls-16{fill:url(#Dégradé_sans_nom_10-14);}.cls-17{fill:url(#Dégradé_sans_nom_10-15);}.cls-18{fill:url(#Dégradé_sans_nom_10-16);}.cls-19{fill:url(#Dégradé_sans_nom_10-17);}.cls-20{fill:url(#Dégradé_sans_nom_10-18);}.cls-21{fill:url(#Dégradé_sans_nom_10-19);}.cls-22{fill:#dcd8d7;}.cls-23,.cls-24,.cls-25{stroke:#dcd8d7;stroke-miterlimit:10;}.cls-24{stroke-dasharray:6.99 6.99;}.cls-25{stroke-dasharray:7;}</style><clipPath id="clip-path" transform="translate(6.13 4.8)"><rect class="cls-1" width="451.91" height="375.12"/></clipPath><linearGradient id="Dégradé_sans_nom_10" x1="43.49" y1="288.71" x2="97.6" y2="288.71" gradientUnits="userSpaceOnUse"><stop offset="0.17" stop-color="#fbb08d"/><stop offset="0.51" stop-color="#8b3b1c"/><stop offset="0.99" stop-color="#fbb08d"/></linearGradient><linearGradient id="Dégradé_sans_nom_10-2" x1="100.13" y1="296" x2="133.57" y2="296" xlink:href="#Dégradé_sans_nom_10"/><linearGradient id="Dégradé_sans_nom_10-3" x1="131.08" y1="283.99" x2="150.48" y2="283.99" xlink:href="#Dégradé_sans_nom_10"/><linearGradient id="Dégradé_sans_nom_10-4" x1="152.9" y1="296.15" x2="178.87" y2="296.15" xlink:href="#Dégradé_sans_nom_10"/><linearGradient id="Dégradé_sans_nom_10-5" x1="179.86" y1="296.27" x2="219.55" y2="296.27" xlink:href="#Dégradé_sans_nom_10"/><linearGradient id="Dégradé_sans_nom_10-6" x1="220.88" y1="291.68" x2="242.92" y2="291.68" xlink:href="#Dégradé_sans_nom_10"/><linearGradient id="Dégradé_sans_nom_10-7" x1="244.71" y1="271.78" x2="255.09" y2="271.78" xlink:href="#Dégradé_sans_nom_10"/><linearGradient id="Dégradé_sans_nom_10-8" x1="259.76" y1="288.01" x2="295.18" y2="288.01" xlink:href="#Dégradé_sans_nom_10"/><linearGradient id="Dégradé_sans_nom_10-9" x1="296.31" y1="283.51" x2="335.08" y2="283.51" xlink:href="#Dégradé_sans_nom_10"/><linearGradient id="Dégradé_sans_nom_10-10" x1="337.47" y1="296.02" x2="370.17" y2="296.02" xlink:href="#Dégradé_sans_nom_10"/><linearGradient id="Dégradé_sans_nom_10-11" x1="372.49" y1="306.23" x2="408.66" y2="306.23" xlink:href="#Dégradé_sans_nom_10"/><linearGradient id="Dégradé_sans_nom_10-12" x1="217.6" y1="83.01" x2="226" y2="83.01" xlink:href="#Dégradé_sans_nom_10"/><linearGradient id="Dégradé_sans_nom_10-13" x1="186.26" y1="94.61" x2="191.92" y2="94.61" xlink:href="#Dégradé_sans_nom_10"/><linearGradient id="Dégradé_sans_nom_10-14" x1="252.33" y1="95.07" x2="257.69" y2="95.07" xlink:href="#Dégradé_sans_nom_10"/><linearGradient id="Dégradé_sans_nom_10-15" x1="125.94" y1="139.82" x2="147.86" y2="139.82" xlink:href="#Dégradé_sans_nom_10"/><linearGradient id="Dégradé_sans_nom_10-16" x1="293.91" y1="139.82" x2="315.83" y2="139.82" xlink:href="#Dégradé_sans_nom_10"/><linearGradient id="Dégradé_sans_nom_10-17" x1="149.3" y1="108.87" x2="164.64" y2="108.87" xlink:href="#Dégradé_sans_nom_10"/><linearGradient id="Dégradé_sans_nom_10-18" x1="278.54" y1="108.68" x2="293.91" y2="108.68" xlink:href="#Dégradé_sans_nom_10"/><linearGradient id="Dégradé_sans_nom_10-19" x1="179.56" y1="184.62" x2="263.93" y2="184.62" xlink:href="#Dégradé_sans_nom_10"/></defs><g id="Calque_2" data-name="Calque 2"><g id="Logo"><g class="cls-2"><path class="cls-3" d="M97.6,284.16a24.75,24.75,0,0,1-1.2,7.37,33.26,33.26,0,0,1-3.29,7.34,37.13,37.13,0,0,1-5,6.54,35,35,0,0,1-6.32,5.26,27.07,27.07,0,0,1-14.93,4.75q-10.75,0-17-6.25t-6.32-17A28,28,0,0,1,48,277,31.76,31.76,0,0,1,59.3,266.13,30.33,30.33,0,0,1,74.64,262a22.92,22.92,0,0,1,16.09,6.19A20.77,20.77,0,0,1,97.6,284.16Zm-6.66,5.47a25.2,25.2,0,0,0-1.66-9.07,21.05,21.05,0,0,0-4.7-7.4q-6.35-6.37-16.91-6.38-13.76,0-16.63,11.58a37.18,37.18,0,0,0-.89,8.67,29.1,29.1,0,0,0,1.55,9.52,21.43,21.43,0,0,0,4.56,7.7q6.29,6.66,17.36,6.66,8.85,0,13.35-6.15Q90.95,299.36,90.94,289.63Z" transform="translate(6.13 4.8)"/><path class="cls-4" d="M133.57,279.45q-4.14,6.07-10,6.08a5.86,5.86,0,0,1-2.46-.75,11.32,11.32,0,0,0-3.88-1.44,2.14,2.14,0,0,0-1.62.65,5.09,5.09,0,0,0-1,1.81,19.34,19.34,0,0,0-.93,6.56v13.09a3.17,3.17,0,0,0,1.34,3,2.17,2.17,0,0,0,1.19.31,3.71,3.71,0,0,0,1.5-.35,11.23,11.23,0,0,0-1.33,1.46,15.6,15.6,0,0,1-1.47,1.62,6.41,6.41,0,0,1-4.61,1.88,3.33,3.33,0,0,1-2.32-.87,2.79,2.79,0,0,1-1-2.14V290.65c0-.79,0-1.59,0-2.39a7.56,7.56,0,0,0-.24-2.18c-.44-1.44-1.68-2.16-3.73-2.16a8.44,8.44,0,0,0-2.93.55,7.33,7.33,0,0,0,2.28-1.6,16.84,16.84,0,0,1,3.8-2.87,10.86,10.86,0,0,1,3.53-.79,4.55,4.55,0,0,1,2.09.39,2.9,2.9,0,0,1,1.14,1.08,6.85,6.85,0,0,1,.68,3.48c.66-.5,1.39-1.06,2.17-1.69s1.6-1.22,2.45-1.79a10.07,10.07,0,0,1,5.29-2,6.06,6.06,0,0,1,2.8.76c1,.5,1.71.86,2.19,1.09a3.08,3.08,0,0,0,1.33.34A8,8,0,0,0,133.57,279.45Z" transform="translate(6.13 4.8)"/><path class="cls-5" d="M150.48,308.45c-.68.55-1.35,1.11-2,1.68a21.59,21.59,0,0,1-2,1.57,8.66,8.66,0,0,1-4.72,1.6,5,5,0,0,1-3-.65c-1.16-.86-1.74-2.46-1.74-4.78V291.68q0-3.69-1.33-4.78a2,2,0,0,0-1.34-.52,7,7,0,0,0-1.21.09l-1,.19-1,.2c1.13-.89,2.2-1.68,3.19-2.39s1.84-1.3,2.54-1.78,1.69-1.15,2.94-2a35.24,35.24,0,0,1,3.9-2.37v24.12a12.89,12.89,0,0,0,.44,4.4q1,1.88,4.24,1.88A11.81,11.81,0,0,0,150.48,308.45Zm-7.14-53.77.2,3.9v1.77c0,1.1-.13,1.76-.41,2s-.57.47-.88.7c-1.28.91-3.12,2.14-5.54,3.69.12-2.28.17-3.45.17-3.53s0-1.38-.17-3.88Z" transform="translate(6.13 4.8)"/><path class="cls-6" d="M178.87,306.33a20.18,20.18,0,0,1-11.62,6.53,24.42,24.42,0,0,1-4,.27,8.23,8.23,0,0,1-4.44-1.31,11,11,0,0,1-3.42-3.4,18.22,18.22,0,0,1-2.53-9.84,16.17,16.17,0,0,1,2.94-8.47,27.92,27.92,0,0,1,7-7.65q4.46-3.29,8.41-3.28a4.55,4.55,0,0,1,3.45,1.5A4.94,4.94,0,0,1,176,284a7.48,7.48,0,0,1-.82,3.46,15.81,15.81,0,0,1-2.14,3.1,25.78,25.78,0,0,1-3,2.88q-1.69,1.38-3.47,2.58-2.49,1.71-6.29,3.86a11.78,11.78,0,0,0,3.86,6.37,11,11,0,0,0,7.14,2.24A15.47,15.47,0,0,0,178.87,306.33Zm-10.32-13.69a5.44,5.44,0,0,0,.92-2.87,7.81,7.81,0,0,0-.31-2.38,5.48,5.48,0,0,0-.88-1.72,4.18,4.18,0,0,0-3.45-1.71q-5.21,0-5.2,10.59a23.15,23.15,0,0,0,.31,3.72Q166,296.61,168.55,292.64Z" transform="translate(6.13 4.8)"/><path class="cls-7" d="M186.72,310.33l0-22a5.34,5.34,0,0,0-.62-3.08,3.5,3.5,0,0,0-2.94-1.37,9.63,9.63,0,0,0-3.34.55,8.85,8.85,0,0,0,2.32-1.6A15.08,15.08,0,0,1,185.9,280a9.87,9.87,0,0,1,3.61-.82,4.25,4.25,0,0,1,2.32.51,2.93,2.93,0,0,1,1.11,1.37,12,12,0,0,1,.44,4q6.39-5.64,12-5.64a7.93,7.93,0,0,1,5.3,1.92,6.36,6.36,0,0,1,2.35,5v16.88a7.58,7.58,0,0,0,.55,3.48,3.6,3.6,0,0,0,3.42,1.81,6.68,6.68,0,0,0,2.59-.51,47.52,47.52,0,0,1-4.2,3.38,8.86,8.86,0,0,1-4.66,1.75,4.37,4.37,0,0,1-2.84-.72,3.85,3.85,0,0,1-1.18-1.81,20.14,20.14,0,0,1-.37-4.89V293q0-6.12-4-8.06a7.92,7.92,0,0,0-3.45-.69q-4.95,0-5.36,7.35c-.07,1.23-.11,2.33-.11,3.31v10.56a3.17,3.17,0,0,0,1.34,3,2.19,2.19,0,0,0,1.19.31,3.8,3.8,0,0,0,1.51-.35l-1.71,1.47c-.66.57-1.36,1.12-2.09,1.64q-2.7,1.85-4.3,1.85C187.59,313.34,186.72,312.33,186.72,310.33Z" transform="translate(6.13 4.8)"/><path class="cls-8" d="M220.88,283l4.44-3.49V274.7a32.5,32.5,0,0,0,2.63-2,8,8,0,0,1,1.34-1l1.12-.65a9.24,9.24,0,0,0,1.58-1v8.33h10.93a7.23,7.23,0,0,0-2.26,1.64c-2.3,2-3.76,3-4.37,3H232v18.31c0,4.19,1.2,6.61,3.62,7.27a8.6,8.6,0,0,0,2,.28,6.81,6.81,0,0,0,2.66-.47c.73-.3,1.33-.58,1.81-.83a13.21,13.21,0,0,1-5.84,4.85,10.28,10.28,0,0,1-4.18.85,6.46,6.46,0,0,1-3.47-.78,6.16,6.16,0,0,1-2-2,12.3,12.3,0,0,1-1.34-6.15V283Z" transform="translate(6.13 4.8)"/><path class="cls-9" d="M248.21,281.23c2.35-2.35,3.52-4.76,3.52-7.25a2.32,2.32,0,0,0-.53-1.82,1.56,1.56,0,0,0-1-.43,1.26,1.26,0,0,0-.78.26q-.36.25-.6.39a2.38,2.38,0,0,1-.55.31L244.73,267c-.09-.09.27-.43,1.09-1s1.52-1.09,2.1-1.47,1.12-.75,1.62-1.1a8.67,8.67,0,0,1,1.85-1.05c.3.47.61,1,.94,1.45l1,1.45a12.46,12.46,0,0,1,1.47,3.14,9.15,9.15,0,0,1,.31,2.82,10.35,10.35,0,0,1-.55,2.85,12.57,12.57,0,0,1-3.07,5,8.34,8.34,0,0,1-1.81,1.28A8.37,8.37,0,0,0,248.21,281.23Z" transform="translate(6.13 4.8)"/><path class="cls-10" d="M284.87,271.42c.77-.77,1.16-1.34,1.16-1.69a1.11,1.11,0,0,0-.5-.9,4.64,4.64,0,0,0-1.26-.65,10.58,10.58,0,0,0-1.71-.46,17.76,17.76,0,0,0-1.83-.29,26.29,26.29,0,0,0-3-.21,19.88,19.88,0,0,0-2.87.24,10,10,0,0,0-3,.92,5,5,0,0,0-3.11,4.68,9.35,9.35,0,0,0,1.15,5,9.9,9.9,0,0,0,3,3.09,18.11,18.11,0,0,0,4.21,2.05q2.39.82,4.87,1.54t4.87,1.54a17.47,17.47,0,0,1,4.22,2.08,9,9,0,0,1,4.13,7.89q0,4.95-4.2,9.19a27,27,0,0,1-9.53,5.95,28,28,0,0,1-10.28,2.11,20.12,20.12,0,0,1-5.52-.71,19.62,19.62,0,0,1-3.5-1.27c-1.59-.79-2.39-1.74-2.39-2.83q0-2.64,7.82-6.9a3.3,3.3,0,0,0-1,2.17,2.56,2.56,0,0,0,.66,1.77A6,6,0,0,0,269,307a12.18,12.18,0,0,0,2.37.87c.88.22,1.75.41,2.61.54a28.45,28.45,0,0,0,4.34.38,20.29,20.29,0,0,0,3.83-.36,10,10,0,0,0,3.35-1.25,6.74,6.74,0,0,0,3.31-6.25q0-6.63-8.4-9.84-2.4-.88-4.9-1.69c-1.68-.53-3.31-1.08-4.91-1.65a20.79,20.79,0,0,1-4.23-2.05,8.3,8.3,0,0,1-4.17-7.21c0-2.48,1.4-5,4.2-7.69a32.8,32.8,0,0,1,9.12-5.87,22.57,22.57,0,0,1,8.92-2.36,19.22,19.22,0,0,1,5.33.61,14.51,14.51,0,0,1,2.54.94.91.91,0,0,1,.53.76,1.78,1.78,0,0,1-.48,1,11,11,0,0,1-1.23,1.28c-.5.46-1.05.91-1.65,1.37s-1.2.87-1.8,1.26A23.14,23.14,0,0,1,284.87,271.42Z" transform="translate(6.13 4.8)"/><path class="cls-11" d="M308.88,305.21c0,2.27.66,3.41,2,3.41A6.14,6.14,0,0,0,313,308a9.42,9.42,0,0,1-4,4.48,5.22,5.22,0,0,1-2.9.7,3.09,3.09,0,0,1-2.21-.84,5.44,5.44,0,0,1-1-1.81,14.27,14.27,0,0,1-.55-4.3v-39c0-2.41-.42-4-1.26-4.81a2,2,0,0,0-1.47-.55,12.14,12.14,0,0,0-3.21.48q4.17-3.28,12.57-8.58v31.33a24,24,0,0,1,8.75-5.12,10.35,10.35,0,0,1,3.17-.52,8.57,8.57,0,0,1,2.92.5,8.34,8.34,0,0,1,2.48,1.38,6.28,6.28,0,0,1,2.43,5v17.39c0,3,.72,4.67,2.18,5a6,6,0,0,0,1.3.14,8,8,0,0,0,3-.86,13.15,13.15,0,0,1-6.59,4.75,9.3,9.3,0,0,1-2.78.41,3.38,3.38,0,0,1-2.31-.72,3.69,3.69,0,0,1-1.13-1.81,9,9,0,0,1-.31-2.39V293c0-3.49-.53-5.83-1.6-7s-2.79-1.71-5.43-1.71q-5.3,0-5.91,7.24c-.09,1.23-.14,2.37-.14,3.42Z" transform="translate(6.13 4.8)"/><path class="cls-12" d="M366.48,283.14a14.8,14.8,0,0,1,2.71,4.53,14.12,14.12,0,0,1,1,5.1,17,17,0,0,1-.76,5,21.12,21.12,0,0,1-2.1,4.69,25.3,25.3,0,0,1-3.17,4.22,23,23,0,0,1-4,3.44,16.77,16.77,0,0,1-9.39,3.1,12.24,12.24,0,0,1-9.46-4.33,14.06,14.06,0,0,1-3.8-9.77,18.44,18.44,0,0,1,2.91-9.6,21.63,21.63,0,0,1,11.82-9.88,15.12,15.12,0,0,1,5.05-.85,11.37,11.37,0,0,1,5.08,1.18A13.27,13.27,0,0,1,366.48,283.14Zm-16.16.24a5.21,5.21,0,0,0-5,3.31,13.57,13.57,0,0,0-1.23,5.88,20.51,20.51,0,0,0,.87,6.09,15.82,15.82,0,0,0,2.58,5,11.74,11.74,0,0,0,9.77,5,5.27,5.27,0,0,0,5.06-3.48,14.94,14.94,0,0,0,1.12-6A17.46,17.46,0,0,0,359.83,288,11.58,11.58,0,0,0,350.32,283.38Z" transform="translate(6.13 4.8)"/><path class="cls-13" d="M372.49,284.4q6-5.36,9.73-5.36,3.12,0,3.49,3.42a17.33,17.33,0,0,1,.1,1.91,47.7,47.7,0,0,1,4.92-3.31,12.67,12.67,0,0,1,6.13-1.75,11.56,11.56,0,0,1,5.26,1.15,10.3,10.3,0,0,1,3.78,3.12q2.76,3.8,2.76,10.11,0,7.49-6.73,13.57a23.6,23.6,0,0,1-9.15,5.19,16.26,16.26,0,0,1-4.32.72,15.21,15.21,0,0,1-2.65-.17v9.77a7.9,7.9,0,0,1-2.39,6h8.33a2.83,2.83,0,0,0-1.22.77l-1.85,1.58c-1.82,1.53-3,2.29-3.55,2.29h-8.34a11.87,11.87,0,0,0,2.36-7.38V288.16a5.59,5.59,0,0,0-.55-3,3.23,3.23,0,0,0-2.8-1.4A8.28,8.28,0,0,0,372.49,284.4Zm13.32,19.24a9.6,9.6,0,0,0,8.88,5q6.29,0,7.11-6.21a31.38,31.38,0,0,0,.27-4.39,22.31,22.31,0,0,0-.61-5.13,13.42,13.42,0,0,0-2-4.59q-3-4.35-9.09-4.34c-1.8,0-3.33,1-4.58,3.11Z" transform="translate(6.13 4.8)"/><path class="cls-14" d="M225,79.47l-3.18-7.42-3.18,7.42a12.6,12.6,0,0,0,2.15,13.34l1,1.16,1-1.16A12.63,12.63,0,0,0,225,79.47Z" transform="translate(6.13 4.8)"/><path class="cls-15" d="M189.34,92.46l-3.08-2,.64,3.64a5.79,5.79,0,0,0,4.18,4.58l.68.18.1-.7A5.78,5.78,0,0,0,189.34,92.46Z" transform="translate(6.13 4.8)"/><path class="cls-16" d="M252.44,98.69l.13.7.68-.22a5.79,5.79,0,0,0,4-4.76l.48-3.66-3,2.18A5.77,5.77,0,0,0,252.44,98.69Z" transform="translate(6.13 4.8)"/><path class="cls-17" d="M133.36,136.64l-7.42,3.18,7.42,3.18a12.6,12.6,0,0,0,13.34-2.15l1.16-1-1.16-1A12.64,12.64,0,0,0,133.36,136.64Z" transform="translate(6.13 4.8)"/><path class="cls-18" d="M295.07,138.79l-1.16,1,1.16,1A12.61,12.61,0,0,0,308.41,143l7.42-3.18-7.42-3.18A12.65,12.65,0,0,0,295.07,138.79Z" transform="translate(6.13 4.8)"/><path class="cls-19" d="M156.76,104.12l-7.46-3.07,2.92,7.52a12.6,12.6,0,0,0,10.87,8l1.55.11-.08-1.55A12.62,12.62,0,0,0,156.76,104.12Z" transform="translate(6.13 4.8)"/><path class="cls-20" d="M286.44,103.92a12.62,12.62,0,0,0-7.82,11l-.08,1.55,1.55-.11a12.62,12.62,0,0,0,10.89-8l2.93-7.51Z" transform="translate(6.13 4.8)"/><path class="cls-21" d="M262.16,205.37c-5.82-14.74-15.29-18.6-25.34-20.05v-.69c0-24.8-4.13-49.86-12-55.84,27,2.09,32.12,16.15,32.33,16.77l.11,0a50.4,50.4,0,0,1,4.17,13.22V136.18a7.06,7.06,0,0,1-1.82,4.24,1.21,1.21,0,0,1-.67.39c-3.55-5.39-13.24-15.09-37.2-16-32.81-1.27-40.51,22.39-40.59,22.61a26.69,26.69,0,0,0,.07,17.35,24.44,24.44,0,0,0,8,10.69l0,0a27.69,27.69,0,0,0,5.75,4l.51.32a38.24,38.24,0,0,0,9.86,4.54v.31c0,25,4.18,50.22,12.21,56a45.94,45.94,0,0,1-11.44-2.35,41.7,41.7,0,0,1-17.77-11.55,23.83,23.83,0,0,1-4.85-15.4l-3.82-.16a26.1,26.1,0,0,0,.1,3.65l-.19,17.79a8.7,8.7,0,0,1,2.24-5.22,2,2,0,0,1,2-.49c.49.76,1,1.5,1.54,2.21l.1.14a45.7,45.7,0,0,0,19.47,12.66,47.29,47.29,0,0,0,14.54,2.62,32,32,0,0,0,4.74-.34h.64c9.75,0,27.14-6.32,34.91-17.25C264.33,220.45,265.17,213,262.16,205.37ZM233,184.63v.22c-1.54-.16-3.1-.27-4.64-.4A88.92,88.92,0,0,1,215,182.72h-.07c-1-.3-2-.54-2.89-.73a.11.11,0,0,1-.07,0c-1-.25-1.88-.51-2.76-.77.45-31,7.09-49.9,11.89-49.9C226.05,131.28,233,151.58,233,184.63Zm-48.24-21.2a22.92,22.92,0,0,1,0-14.87c.26-.83,6.39-19.33,32.92-20-7.62,5.19-11.81,27.84-12.31,51.35a56.83,56.83,0,0,1-8.75-3.92l-.15-.09C192.11,173.16,187.09,169.67,184.76,163.43Zm24.39,21.82.48.11,1.17.25h.07c.95.26,1.94.51,3,.76a36.8,36.8,0,0,1,7,2.82,51,51,0,0,1,11.83,8.31c-1.5,25.37-7.26,40.48-11.56,40.48C216.11,238,209.23,218,209.15,185.25Zm32,40.86a23,23,0,0,1-8.49,10.8,21.35,21.35,0,0,1-7.34,3.12c5.8-5.12,9.47-20.69,10.86-38.59a28.89,28.89,0,0,1,5.23,10.27A23.5,23.5,0,0,1,241.14,226.11Z" transform="translate(6.13 4.8)"/><path class="cls-22" d="M43,355.4c-3-7.66-8-9.67-13.18-10.43v-.36c0-12.89-2.15-25.92-6.26-29,14,1.09,16.7,8.39,16.81,8.72l.06,0a26.2,26.2,0,0,1,2.16,6.87V319.42a3.64,3.64,0,0,1-.95,2.2.61.61,0,0,1-.34.21c-1.85-2.8-6.88-7.85-19.35-8.33C4.85,312.84.85,325.14.81,325.25a13.91,13.91,0,0,0,0,9A12.81,12.81,0,0,0,5,339.84l0,0a14.1,14.1,0,0,0,3,2.06l.27.17a19.62,19.62,0,0,0,5.13,2.37v.15c0,13,2.17,26.12,6.35,29.11a24.11,24.11,0,0,1-5.95-1.23,21.65,21.65,0,0,1-9.24-6,12.27,12.27,0,0,1-2-4,12.47,12.47,0,0,1-.51-4l-2-.08a13.26,13.26,0,0,0,.05,1.89L0,369.54a4.5,4.5,0,0,1,1.17-2.71,1,1,0,0,1,1-.26,13.26,13.26,0,0,0,.8,1.16l.05.07a23.74,23.74,0,0,0,10.13,6.58,24.53,24.53,0,0,0,7.56,1.36,15.93,15.93,0,0,0,2.46-.18h.33c5.07,0,14.12-3.29,18.16-9A11.38,11.38,0,0,0,43,355.4ZM27.79,344.61v.12c-.8-.08-1.61-.14-2.41-.21a46.18,46.18,0,0,1-7-.9h0c-.52-.15-1-.27-1.5-.37l0,0c-.5-.13-1-.26-1.43-.4.23-16.13,3.68-25.95,6.18-25.95S27.79,327.43,27.79,344.61Zm-25.09-11a12,12,0,0,1,0-7.73c.14-.43,3.33-10.05,17.12-10.4-4,2.7-6.14,14.48-6.4,26.7a30.43,30.43,0,0,1-4.55-2l-.08-.05C6.53,338.65,3.92,336.84,2.7,333.59Zm12.69,11.35.25.05.61.14h0c.5.13,1,.27,1.55.39A19.35,19.35,0,0,1,21.45,347a26.66,26.66,0,0,1,6.15,4.32c-.78,13.2-3.78,21.05-6,21.05C19,372.36,15.43,361.94,15.39,344.94ZM32,366.18a11.88,11.88,0,0,1-4.41,5.62,11.15,11.15,0,0,1-3.82,1.62c3-2.66,4.93-10.76,5.65-20.07a15.31,15.31,0,0,1,2.72,5.34A12.23,12.23,0,0,1,32,366.18Z" transform="translate(6.13 4.8)"/><path class="cls-22" d="M44.81,41.6c-3-7.67-8-9.68-13.18-10.43v-.36c0-12.89-2.14-25.93-6.26-29,14.05,1.08,16.71,8.39,16.81,8.72l.06,0a26,26,0,0,1,2.17,6.87V5.62a3.66,3.66,0,0,1-.95,2.2.6.6,0,0,1-.34.2C41.27,5.22,36.23.18,23.77-.31,6.71-1,2.7,11.34,2.66,11.45a14,14,0,0,0,0,9A12.73,12.73,0,0,0,6.85,26l0,0a14.49,14.49,0,0,0,3,2.07l.27.17a20,20,0,0,0,5.12,2.36v.16c0,13,2.18,26.11,6.35,29.1a23.74,23.74,0,0,1-6-1.22,21.79,21.79,0,0,1-9.24-6,12.33,12.33,0,0,1-2.52-8l-2-.08A15,15,0,0,0,2,46.49l-.1,9.25A4.53,4.53,0,0,1,3,53a1,1,0,0,1,1-.26c.25.4.52.78.8,1.15l.06.07A23.62,23.62,0,0,0,15,60.57a24.6,24.6,0,0,0,7.56,1.37,16.15,16.15,0,0,0,2.47-.18h.33c5.07,0,14.11-3.29,18.15-9A11.33,11.33,0,0,0,44.81,41.6ZM29.65,30.81v.11c-.81-.08-1.61-.14-2.42-.2a47.36,47.36,0,0,1-7-.9h0c-.53-.15-1-.28-1.51-.38h0c-.49-.13-1-.27-1.43-.41C17.49,12.89,21,3.07,23.44,3.07S29.65,13.62,29.65,30.81Zm-25.09-11a12,12,0,0,1,0-7.73C4.7,11.62,7.89,2,21.68,1.66c-4,2.7-6.14,14.47-6.4,26.7a29.4,29.4,0,0,1-4.55-2l-.08,0C8.38,24.85,5.77,23,4.56,19.78ZM17.24,31.14l.25.05.61.13h0l1.55.39a19.3,19.3,0,0,1,3.61,1.47,25.86,25.86,0,0,1,6.15,4.32c-.78,13.19-3.77,21.05-6,21.05C20.87,58.56,17.29,48.14,17.24,31.14ZM33.88,52.38A12,12,0,0,1,29.47,58a11.15,11.15,0,0,1-3.82,1.62c3-2.66,4.92-10.76,5.65-20.07A15,15,0,0,1,34,44.89,12.21,12.21,0,0,1,33.88,52.38Z" transform="translate(6.13 4.8)"/><path class="cls-22" d="M451.62,41.93c-3-7.67-7.95-9.68-13.18-10.43v-.36c0-12.89-2.15-25.93-6.26-29,14.05,1.08,16.7,8.39,16.81,8.72l.06,0a26,26,0,0,1,2.17,6.87V6a3.66,3.66,0,0,1-1,2.2.55.55,0,0,1-.35.2C448.08,5.55,443,.51,430.58,0c-17.07-.67-21.07,11.64-21.11,11.75a13.89,13.89,0,0,0,0,9,12.66,12.66,0,0,0,4.15,5.56l0,0a14.49,14.49,0,0,0,3,2.07l.26.17A20,20,0,0,0,422.06,31v.16c0,13,2.18,26.11,6.35,29.1a23.74,23.74,0,0,1-6-1.22,21.73,21.73,0,0,1-9.24-6,12.33,12.33,0,0,1-2.52-8l-2-.08a13.36,13.36,0,0,0,.05,1.9l-.1,9.25a4.5,4.5,0,0,1,1.17-2.71,1,1,0,0,1,1-.26c.25.4.52.78.8,1.15l.06.08a23.65,23.65,0,0,0,10.12,6.58,24.66,24.66,0,0,0,7.56,1.36,16.15,16.15,0,0,0,2.47-.18h.33c5.07,0,14.11-3.29,18.15-9A11.35,11.35,0,0,0,451.62,41.93ZM436.45,31.14v.11c-.8-.08-1.61-.14-2.41-.2a47.36,47.36,0,0,1-7-.9h0c-.52-.15-1-.28-1.5-.38h0l-1.43-.4c.23-16.13,3.68-25.95,6.18-25.95S436.45,14,436.45,31.14Zm-25.08-11a11.88,11.88,0,0,1,0-7.74c.14-.43,3.32-10,17.12-10.39-4,2.7-6.14,14.47-6.4,26.7a29.52,29.52,0,0,1-4.55-2l-.08-.05C415.19,25.18,412.58,23.36,411.37,20.12Zm12.68,11.35.25.05.61.13h0l1.55.39a19.08,19.08,0,0,1,3.62,1.47,26.36,26.36,0,0,1,6.15,4.32c-.78,13.19-3.78,21-6,21C427.67,58.89,424.1,48.47,424.05,31.47Zm16.64,21.24a12,12,0,0,1-4.42,5.62A11,11,0,0,1,432.46,60c3-2.66,4.92-10.76,5.64-20.07a15,15,0,0,1,2.72,5.34A12.21,12.21,0,0,1,440.69,52.71Z" transform="translate(6.13 4.8)"/><path class="cls-22" d="M451,354.23c-3-7.66-8-9.67-13.18-10.43v-.35c0-12.9-2.15-25.93-6.27-29,14.05,1.09,16.71,8.4,16.81,8.72l.06,0a26.14,26.14,0,0,1,2.17,6.87V318.25a3.64,3.64,0,0,1-.95,2.2.61.61,0,0,1-.34.21c-1.85-2.8-6.89-7.85-19.35-8.33-17.06-.66-21.06,11.64-21.1,11.76a13.88,13.88,0,0,0,0,9,12.81,12.81,0,0,0,4.16,5.56l0,0a14.34,14.34,0,0,0,3,2.07l.27.16a19.62,19.62,0,0,0,5.13,2.37v.16c0,13,2.17,26.11,6.34,29.1a24.33,24.33,0,0,1-5.95-1.23,21.68,21.68,0,0,1-9.23-6,12.27,12.27,0,0,1-2-4,12.47,12.47,0,0,1-.51-4l-2-.08a13.26,13.26,0,0,0,.05,1.89l-.1,9.25a4.5,4.5,0,0,1,1.17-2.71,1,1,0,0,1,1-.26,13.26,13.26,0,0,0,.8,1.16l.05.07a23.71,23.71,0,0,0,10.12,6.58,24.67,24.67,0,0,0,7.57,1.36,17.25,17.25,0,0,0,2.46-.17h.33c5.07,0,14.11-3.28,18.16-9A11.38,11.38,0,0,0,451,354.23Zm-15.17-10.78v.11c-.8-.08-1.61-.14-2.41-.21a46.18,46.18,0,0,1-7-.9h0c-.52-.16-1-.28-1.5-.38l0,0c-.5-.13-1-.26-1.44-.4.24-16.13,3.69-25.95,6.19-25.95S435.83,326.26,435.83,343.45Zm-25.09-11a12,12,0,0,1,0-7.73c.14-.43,3.33-10.05,17.12-10.4-4,2.71-6.14,14.48-6.4,26.7a30,30,0,0,1-4.55-2l-.08,0C414.57,337.48,412,335.67,410.74,332.42Zm12.68,11.35.26.05.61.14h0c.5.14,1,.27,1.55.39a19.35,19.35,0,0,1,3.62,1.47,26.66,26.66,0,0,1,6.15,4.32c-.79,13.2-3.78,21.06-6,21.06C427.05,371.2,423.47,360.77,423.42,343.77ZM440.06,365a12,12,0,0,1-4.41,5.62,11.37,11.37,0,0,1-3.82,1.63c3-2.67,4.93-10.76,5.65-20.07a14.93,14.93,0,0,1,2.71,5.34A12.17,12.17,0,0,1,440.06,365Z" transform="translate(6.13 4.8)"/><line class="cls-23" x1="49.92" x2="49.92" y2="3.5"/><line class="cls-24" x1="49.92" y1="10.49" x2="49.92" y2="384.41"/><line class="cls-23" x1="49.92" y1="387.9" x2="49.92" y2="391.4"/><line class="cls-23" x1="414.17" y1="4.47" x2="414.17" y2="7.97"/><line class="cls-24" x1="414.17" y1="14.96" x2="414.17" y2="388.88"/><line class="cls-23" x1="414.17" y1="392.37" x2="414.17" y2="395.87"/><line class="cls-25" y1="66.62" x2="463.15" y2="67.07"/><line class="cls-25" x1="6.13" y1="316.88" x2="469.28" y2="317.33"/></g></g></g></svg>