<svg xmlns="http://www.w3.org/2000/svg" xmlns:xlink="http://www.w3.org/1999/xlink" viewBox="0 0 365.18 261.37"><defs><style>.cls-1{fill:none;}.cls-2{clip-path:url(#clip-path);}.cls-3{fill:#8b3b1c;}</style><clipPath id="clip-path" transform="translate(-43.49 -72.38)"><rect class="cls-1" width="451.91" height="375.45"/></clipPath></defs><g id="Calque_2" data-name="Calque 2"><g id="Logo"><g class="cls-2"><path class="cls-3" d="M97.6,284.49a24.75,24.75,0,0,1-1.2,7.37,33.26,33.26,0,0,1-3.29,7.34,36.41,36.41,0,0,1-5,6.54A35,35,0,0,1,81.78,311a27.07,27.07,0,0,1-14.93,4.75q-10.75,0-17-6.25t-6.32-17A28.07,28.07,0,0,1,48,277.32,31.76,31.76,0,0,1,59.3,266.46a30.33,30.33,0,0,1,15.34-4.14,23,23,0,0,1,16.09,6.19A20.77,20.77,0,0,1,97.6,284.49ZM90.94,290a25.2,25.2,0,0,0-1.66-9.07,20.92,20.92,0,0,0-4.7-7.39q-6.35-6.39-16.91-6.39-13.76,0-16.63,11.58a37.18,37.18,0,0,0-.89,8.67,29.1,29.1,0,0,0,1.55,9.52,21.43,21.43,0,0,0,4.56,7.7q6.29,6.66,17.36,6.66,8.85,0,13.35-6.15Q90.95,299.71,90.94,290Z" transform="translate(-43.49 -72.38)"/><path class="cls-3" d="M133.57,279.78q-4.14,6.08-10,6.08a5.86,5.86,0,0,1-2.46-.75,11.32,11.32,0,0,0-3.88-1.44,2.14,2.14,0,0,0-1.62.65,5.09,5.09,0,0,0-1,1.81,19.38,19.38,0,0,0-.93,6.56v13.09a3.17,3.17,0,0,0,1.34,3,2.17,2.17,0,0,0,1.19.31,3.71,3.71,0,0,0,1.5-.35,11.23,11.23,0,0,0-1.33,1.46,14.64,14.64,0,0,1-1.47,1.62,6.41,6.41,0,0,1-4.61,1.88,3.33,3.33,0,0,1-2.32-.87,2.79,2.79,0,0,1-1-2.14V291c0-.8,0-1.6,0-2.4a7.56,7.56,0,0,0-.24-2.18c-.44-1.44-1.68-2.15-3.73-2.15a8.42,8.42,0,0,0-2.93.54,7.33,7.33,0,0,0,2.28-1.6,16.84,16.84,0,0,1,3.8-2.87,10.86,10.86,0,0,1,3.53-.79,4.55,4.55,0,0,1,2.09.39A2.9,2.9,0,0,1,113,281a6.85,6.85,0,0,1,.68,3.48c.66-.5,1.39-1.06,2.17-1.69s1.6-1.22,2.45-1.79a10.07,10.07,0,0,1,5.29-2,6.18,6.18,0,0,1,2.8.76c1,.5,1.71.86,2.19,1.09a3.08,3.08,0,0,0,1.33.34A8,8,0,0,0,133.57,279.78Z" transform="translate(-43.49 -72.38)"/><path class="cls-3" d="M150.48,308.78c-.68.55-1.35,1.11-2,1.68a21.59,21.59,0,0,1-2,1.57,8.66,8.66,0,0,1-4.72,1.6,5,5,0,0,1-3-.65Q137,311.69,137,308.2V292q0-3.69-1.33-4.78a2.06,2.06,0,0,0-1.34-.51,7.06,7.06,0,0,0-1.21.08l-1,.19-1,.2c1.13-.88,2.2-1.68,3.19-2.39s1.84-1.3,2.54-1.77,1.69-1.16,2.94-2a36.83,36.83,0,0,1,3.9-2.37v24.12a12.89,12.89,0,0,0,.44,4.4c.64,1.26,2,1.88,4.24,1.88A11.81,11.81,0,0,0,150.48,308.78ZM143.34,255l.2,3.9v1.77c0,1.1-.13,1.76-.41,2a10.4,10.4,0,0,1-.88.7c-1.28.91-3.12,2.14-5.54,3.69.12-2.27.17-3.45.17-3.53s0-1.37-.17-3.88Z" transform="translate(-43.49 -72.38)"/><path class="cls-3" d="M178.87,306.66a20.18,20.18,0,0,1-11.62,6.53,24.42,24.42,0,0,1-4,.27,8.23,8.23,0,0,1-4.44-1.31,11,11,0,0,1-3.42-3.4,18.22,18.22,0,0,1-2.53-9.84q0-3.82,2.94-8.47a27.92,27.92,0,0,1,7-7.65q4.46-3.29,8.41-3.28a4.55,4.55,0,0,1,3.45,1.5,5,5,0,0,1,1.3,3.35,7.55,7.55,0,0,1-.82,3.47,16.05,16.05,0,0,1-2.14,3.09,25.78,25.78,0,0,1-3,2.88q-1.69,1.4-3.47,2.58-2.49,1.71-6.29,3.86a11.78,11.78,0,0,0,3.86,6.37,11,11,0,0,0,7.14,2.24A15.47,15.47,0,0,0,178.87,306.66ZM168.55,293a5.44,5.44,0,0,0,.92-2.87,7.81,7.81,0,0,0-.31-2.38,5.48,5.48,0,0,0-.88-1.72,4.18,4.18,0,0,0-3.45-1.71q-5.21,0-5.2,10.59a23.15,23.15,0,0,0,.31,3.72Q166,296.94,168.55,293Z" transform="translate(-43.49 -72.38)"/><path class="cls-3" d="M186.72,310.66l0-22a5.36,5.36,0,0,0-.62-3.08,3.49,3.49,0,0,0-2.94-1.36,9.63,9.63,0,0,0-3.34.54,8.85,8.85,0,0,0,2.32-1.6,15.08,15.08,0,0,1,3.72-2.84,9.87,9.87,0,0,1,3.61-.82,4.25,4.25,0,0,1,2.32.51,3,3,0,0,1,1.11,1.37,12,12,0,0,1,.44,4q6.39-5.64,12-5.64a7.93,7.93,0,0,1,5.3,1.92,6.36,6.36,0,0,1,2.35,5v16.87a7.56,7.56,0,0,0,.55,3.48,3.61,3.61,0,0,0,3.42,1.82,6.69,6.69,0,0,0,2.59-.52,47.52,47.52,0,0,1-4.2,3.38,8.86,8.86,0,0,1-4.66,1.75,4.37,4.37,0,0,1-2.84-.72,3.85,3.85,0,0,1-1.18-1.81,20.14,20.14,0,0,1-.37-4.89V293.31q0-6.12-4-8.06a7.92,7.92,0,0,0-3.45-.69q-4.95,0-5.36,7.35c-.07,1.23-.11,2.33-.11,3.31v10.56a3.17,3.17,0,0,0,1.34,3,2.19,2.19,0,0,0,1.19.31,3.8,3.8,0,0,0,1.51-.35l-1.71,1.47c-.66.57-1.36,1.12-2.09,1.64q-2.7,1.85-4.3,1.85C187.59,313.67,186.72,312.67,186.72,310.66Z" transform="translate(-43.49 -72.38)"/><path class="cls-3" d="M220.88,283.37l4.44-3.49V275a32.5,32.5,0,0,0,2.63-2,9.32,9.32,0,0,1,1.34-1l1.12-.65a9.24,9.24,0,0,0,1.58-1v8.33h10.93a7.23,7.23,0,0,0-2.26,1.64q-3.45,3-4.37,3H232v18.31c0,4.19,1.2,6.61,3.62,7.27a8.12,8.12,0,0,0,2,.28,7,7,0,0,0,2.66-.46c.73-.31,1.33-.59,1.81-.84a13.21,13.21,0,0,1-5.84,4.85,10.28,10.28,0,0,1-4.18.85,6.46,6.46,0,0,1-3.47-.78,6.16,6.16,0,0,1-2-2.05,12.3,12.3,0,0,1-1.34-6.15V283.37Z" transform="translate(-43.49 -72.38)"/><path class="cls-3" d="M248.21,281.56c2.35-2.35,3.52-4.76,3.52-7.25a2.32,2.32,0,0,0-.53-1.82,1.56,1.56,0,0,0-1-.43,1.33,1.33,0,0,0-.78.26q-.36.26-.6.39a2.38,2.38,0,0,1-.55.31l-3.58-5.71c-.09-.09.27-.43,1.09-1s1.52-1.08,2.1-1.47l1.62-1.09a8.51,8.51,0,0,1,1.85-1.06c.3.47.61,1,.94,1.45l1,1.45a12.46,12.46,0,0,1,1.47,3.14,9.15,9.15,0,0,1,.31,2.82,10.35,10.35,0,0,1-.55,2.85,12.57,12.57,0,0,1-3.07,5,8.34,8.34,0,0,1-1.81,1.28A9.08,9.08,0,0,0,248.21,281.56Z" transform="translate(-43.49 -72.38)"/><path class="cls-3" d="M284.87,271.75c.77-.77,1.16-1.34,1.16-1.69a1.11,1.11,0,0,0-.5-.9,4.64,4.64,0,0,0-1.26-.65,11.72,11.72,0,0,0-1.71-.46,17.76,17.76,0,0,0-1.83-.29,26.29,26.29,0,0,0-3-.21,19.88,19.88,0,0,0-2.87.24,10,10,0,0,0-3,.92,5,5,0,0,0-3.11,4.68,9.35,9.35,0,0,0,1.15,5,9.9,9.9,0,0,0,3,3.09,18.11,18.11,0,0,0,4.21,2.05q2.39.83,4.87,1.54t4.87,1.54a17.85,17.85,0,0,1,4.22,2.08,9,9,0,0,1,4.13,7.89q0,5-4.2,9.19a27,27,0,0,1-9.53,5.95,28,28,0,0,1-10.28,2.11,21.14,21.14,0,0,1-9-2c-1.59-.79-2.39-1.74-2.39-2.83q0-2.64,7.82-6.9a3.3,3.3,0,0,0-1,2.17,2.56,2.56,0,0,0,.66,1.77A6,6,0,0,0,269,307.3a12.18,12.18,0,0,0,2.37.87,25.24,25.24,0,0,0,2.61.54,27.23,27.23,0,0,0,4.34.38,20.29,20.29,0,0,0,3.83-.36,10,10,0,0,0,3.35-1.25,6.74,6.74,0,0,0,3.31-6.25q0-6.62-8.4-9.83c-1.6-.6-3.23-1.16-4.9-1.7s-3.31-1.08-4.91-1.65a20.79,20.79,0,0,1-4.23-2.05,8.29,8.29,0,0,1-4.17-7.21q0-3.72,4.2-7.69a32.8,32.8,0,0,1,9.12-5.87,22.57,22.57,0,0,1,8.92-2.36,18.8,18.8,0,0,1,5.33.62,13.7,13.7,0,0,1,2.54.94.88.88,0,0,1,.53.75,1.78,1.78,0,0,1-.48,1,11,11,0,0,1-1.23,1.28c-.5.46-1.05.91-1.65,1.37s-1.2.88-1.8,1.26A23.14,23.14,0,0,1,284.87,271.75Z" transform="translate(-43.49 -72.38)"/><path class="cls-3" d="M308.88,305.54c0,2.28.66,3.41,2,3.41a6.14,6.14,0,0,0,2.09-.58,9.38,9.38,0,0,1-4,4.48,5.14,5.14,0,0,1-2.9.7,3.09,3.09,0,0,1-2.21-.84,5.44,5.44,0,0,1-1-1.81,14.27,14.27,0,0,1-.55-4.3v-39c0-2.42-.42-4-1.26-4.82a2,2,0,0,0-1.47-.55,12.14,12.14,0,0,0-3.21.48q4.17-3.29,12.57-8.57v31.32a24,24,0,0,1,8.75-5.12,10.66,10.66,0,0,1,3.17-.52,8.57,8.57,0,0,1,2.92.5,8.34,8.34,0,0,1,2.48,1.38,6.28,6.28,0,0,1,2.43,5V304.1c0,3,.72,4.67,2.18,5a6,6,0,0,0,1.3.14,8,8,0,0,0,3-.86,13.15,13.15,0,0,1-6.59,4.75,9.3,9.3,0,0,1-2.78.41,3.38,3.38,0,0,1-2.31-.72,3.64,3.64,0,0,1-1.13-1.81,9,9,0,0,1-.31-2.39v-15.3c0-3.49-.53-5.83-1.6-7s-2.79-1.71-5.43-1.71q-5.3,0-5.91,7.25c-.09,1.22-.14,2.36-.14,3.41Z" transform="translate(-43.49 -72.38)"/><path class="cls-3" d="M366.48,283.47a14.8,14.8,0,0,1,2.71,4.53,14.16,14.16,0,0,1,1,5.1,17,17,0,0,1-.76,5,21.12,21.12,0,0,1-2.1,4.69,25.3,25.3,0,0,1-3.17,4.22,23,23,0,0,1-4,3.44,16.78,16.78,0,0,1-9.39,3.11,12.25,12.25,0,0,1-9.46-4.34,14.06,14.06,0,0,1-3.8-9.77,18.44,18.44,0,0,1,2.91-9.6A21.57,21.57,0,0,1,352.2,280a14.88,14.88,0,0,1,5.05-.86,11.37,11.37,0,0,1,5.08,1.18A13.42,13.42,0,0,1,366.48,283.47Zm-16.16.24a5.21,5.21,0,0,0-5,3.31,13.57,13.57,0,0,0-1.23,5.88A20.63,20.63,0,0,0,345,299a15.88,15.88,0,0,0,2.58,5,11.74,11.74,0,0,0,9.77,5,5.27,5.27,0,0,0,5.06-3.48,14.94,14.94,0,0,0,1.12-6,17.46,17.46,0,0,0-3.67-11.22A11.58,11.58,0,0,0,350.32,283.71Z" transform="translate(-43.49 -72.38)"/><path class="cls-3" d="M372.49,284.73q6-5.36,9.73-5.36,3.12,0,3.49,3.42a17.33,17.33,0,0,1,.1,1.91,47.7,47.7,0,0,1,4.92-3.31,12.67,12.67,0,0,1,6.13-1.75,11.69,11.69,0,0,1,5.26,1.15,10.3,10.3,0,0,1,3.78,3.12q2.76,3.79,2.76,10.12,0,7.47-6.73,13.56a23.6,23.6,0,0,1-9.15,5.19,16.26,16.26,0,0,1-4.32.72,15.21,15.21,0,0,1-2.65-.17v9.77a7.89,7.89,0,0,1-2.39,6h8.33a2.83,2.83,0,0,0-1.22.77l-1.85,1.59c-1.82,1.52-3,2.28-3.55,2.28h-8.34a11.86,11.86,0,0,0,2.36-7.37V288.49a5.52,5.52,0,0,0-.55-3,3.22,3.22,0,0,0-2.8-1.41A8.28,8.28,0,0,0,372.49,284.73ZM385.81,304a9.6,9.6,0,0,0,8.88,5q6.29,0,7.11-6.21a31.38,31.38,0,0,0,.27-4.39,22.31,22.31,0,0,0-.61-5.13,13.42,13.42,0,0,0-2-4.59q-3-4.33-9.09-4.34-2.7,0-4.58,3.11Z" transform="translate(-43.49 -72.38)"/><path class="cls-3" d="M225,79.8l-3.18-7.42-3.18,7.42a12.6,12.6,0,0,0,2.15,13.34l1,1.16,1-1.16A12.63,12.63,0,0,0,225,79.8Z" transform="translate(-43.49 -72.38)"/><path class="cls-3" d="M189.34,92.79l-3.08-2.05.64,3.64A5.79,5.79,0,0,0,191.08,99l.68.19.1-.71A5.78,5.78,0,0,0,189.34,92.79Z" transform="translate(-43.49 -72.38)"/><path class="cls-3" d="M252.44,99l.13.7.68-.22a5.78,5.78,0,0,0,4-4.76l.48-3.66-3,2.18A5.77,5.77,0,0,0,252.44,99Z" transform="translate(-43.49 -72.38)"/><path class="cls-3" d="M133.36,137l-7.42,3.18,7.42,3.18a12.6,12.6,0,0,0,13.34-2.15l1.16-1-1.16-1A12.64,12.64,0,0,0,133.36,137Z" transform="translate(-43.49 -72.38)"/><path class="cls-3" d="M295.07,139.12l-1.16,1,1.16,1a12.61,12.61,0,0,0,13.34,2.15l7.42-3.18L308.41,137A12.65,12.65,0,0,0,295.07,139.12Z" transform="translate(-43.49 -72.38)"/><path class="cls-3" d="M156.76,104.45l-7.46-3.07,2.92,7.52a12.6,12.6,0,0,0,10.87,8l1.55.11-.08-1.55A12.62,12.62,0,0,0,156.76,104.45Z" transform="translate(-43.49 -72.38)"/><path class="cls-3" d="M286.44,104.25a12.62,12.62,0,0,0-7.82,11l-.08,1.55,1.55-.11a12.62,12.62,0,0,0,10.89-8l2.93-7.51Z" transform="translate(-43.49 -72.38)"/><path class="cls-3" d="M262.16,205.71c-5.82-14.75-15.29-18.61-25.34-20.06V185c0-24.79-4.13-49.86-12-55.83,27,2.09,32.12,16.14,32.33,16.76l.11,0a50.27,50.27,0,0,1,4.17,13.21V136.52a7,7,0,0,1-1.82,4.23,1.21,1.21,0,0,1-.67.39c-3.55-5.39-13.24-15.09-37.2-16-32.81-1.27-40.51,22.39-40.59,22.61a26.69,26.69,0,0,0,.07,17.35,24.44,24.44,0,0,0,8,10.69l0,0a27.69,27.69,0,0,0,5.75,4l.51.32a38.33,38.33,0,0,0,9.86,4.55v.3c0,25,4.18,50.22,12.21,56a45.94,45.94,0,0,1-11.44-2.35A41.7,41.7,0,0,1,188.32,227a23.83,23.83,0,0,1-4.85-15.4l-3.82-.16a26.1,26.1,0,0,0,.1,3.65l-.19,17.79a8.67,8.67,0,0,1,2.24-5.21,2,2,0,0,1,2-.5c.49.76,1,1.5,1.54,2.22l.1.14a45.77,45.77,0,0,0,19.47,12.65,47.29,47.29,0,0,0,14.54,2.62,32,32,0,0,0,4.74-.34h.64c9.75,0,27.14-6.32,34.91-17.25C264.33,220.78,265.17,213.34,262.16,205.71ZM233,185v.22c-1.54-.15-3.1-.27-4.64-.4A88.92,88.92,0,0,1,215,183.05h-.07c-1-.3-2-.54-2.89-.73l-.07,0c-1-.26-1.88-.51-2.76-.78.45-31,7.09-49.9,11.89-49.9C226.05,131.61,233,151.91,233,185Zm-48.24-21.2a22.92,22.92,0,0,1,0-14.87c.26-.83,6.39-19.33,32.92-20-7.62,5.19-11.81,27.84-12.31,51.35a56.83,56.83,0,0,1-8.75-3.92l-.15-.08C192.11,173.49,187.09,170,184.76,163.76Zm24.39,21.83.48.1,1.17.25.07,0c.95.25,1.94.5,3,.75a36.26,36.26,0,0,1,7,2.83,50.69,50.69,0,0,1,11.83,8.3c-1.5,25.37-7.26,40.49-11.56,40.49C216.11,238.33,209.23,218.28,209.15,185.59Zm32,40.85a23,23,0,0,1-8.49,10.8,21.35,21.35,0,0,1-7.34,3.12c5.8-5.12,9.47-20.69,10.86-38.59A28.89,28.89,0,0,1,241.4,212,23.5,23.5,0,0,1,241.14,226.44Z" transform="translate(-43.49 -72.38)"/></g></g></g></svg>