<?xml version="1.0" encoding="utf-8"?>
<!-- Generator: Adobe Illustrator 25.1.0, SVG Export Plug-In . SVG Version: 6.00 Build 0)  -->
<svg version="1.1" id="Calque_1" xmlns="http://www.w3.org/2000/svg" xmlns:xlink="http://www.w3.org/1999/xlink" x="0px" y="0px"
	 viewBox="0 0 451.9 375.5" style="enable-background:new 0 0 451.9 375.5;" xml:space="preserve">
<style type="text/css">
	.st0{clip-path:url(#SVGID_2_);}
	.st1{fill:url(#SVGID_3_);}
	.st2{fill:url(#SVGID_4_);}
	.st3{fill:url(#SVGID_5_);}
	.st4{fill:url(#SVGID_6_);}
	.st5{fill:url(#SVGID_7_);}
	.st6{fill:url(#SVGID_8_);}
	.st7{fill:url(#SVGID_9_);}
	.st8{fill:url(#SVGID_10_);}
	.st9{fill:url(#SVGID_11_);}
	.st10{fill:url(#SVGID_12_);}
	.st11{fill:url(#SVGID_13_);}
	.st12{fill:url(#SVGID_14_);}
	.st13{fill:url(#SVGID_15_);}
	.st14{fill:url(#SVGID_16_);}
	.st15{fill:url(#SVGID_17_);}
	.st16{fill:url(#SVGID_18_);}
	.st17{fill:url(#SVGID_19_);}
	.st18{fill:url(#SVGID_20_);}
	.st19{fill:url(#SVGID_21_);}
</style>
<g id="Calque_2_1_">
	<g id="Logo">
		<g>
			<defs>
				<rect id="SVGID_1_" width="451.9" height="375.5"/>
			</defs>
			<clipPath id="SVGID_2_">
				<use xlink:href="#SVGID_1_"  style="overflow:visible;"/>
			</clipPath>
			<g class="st0">
				
					<linearGradient id="SVGID_3_" gradientUnits="userSpaceOnUse" x1="87.02" y1="15.0367" x2="141.097" y2="15.0367" gradientTransform="matrix(1 0 0 -1 -43.49 304.07)">
					<stop  offset="0.17" style="stop-color:#F7B08F"/>
					<stop  offset="0.51" style="stop-color:#8C3C1C"/>
					<stop  offset="0.99" style="stop-color:#F7B08F"/>
				</linearGradient>
				<path class="st1" d="M97.6,284.5c0,2.5-0.4,5-1.2,7.4c-0.8,2.6-1.9,5-3.3,7.3c-1.4,2.4-3.1,4.6-5,6.5c-1.9,2-4,3.8-6.3,5.3
					c-4.4,3-9.6,4.7-14.9,4.8c-7.2,0-12.8-2.1-17-6.3s-6.3-9.8-6.3-17c0-5.4,1.6-10.7,4.5-15.2c2.8-4.5,6.7-8.2,11.3-10.9
					c4.7-2.7,9.9-4.1,15.3-4.1c6-0.1,11.7,2.1,16.1,6.2C95.2,272.6,97.8,278.4,97.6,284.5z M90.9,290c0-3.1-0.6-6.2-1.7-9.1
					c-1-2.8-2.6-5.3-4.7-7.4c-4.2-4.3-9.9-6.4-16.9-6.4c-9.2,0-14.7,3.9-16.6,11.6c-0.6,2.8-0.9,5.8-0.9,8.7c0,3.2,0.5,6.5,1.5,9.5
					c1,2.9,2.5,5.5,4.6,7.7c4.2,4.4,10,6.7,17.4,6.7c5.9,0,10.3-2,13.3-6.1C89.6,301.5,90.9,296.5,90.9,290z"/>
				
					<linearGradient id="SVGID_4_" gradientUnits="userSpaceOnUse" x1="143.62" y1="7.7196" x2="177.06" y2="7.7196" gradientTransform="matrix(1 0 0 -1 -43.49 304.07)">
					<stop  offset="0.2366" style="stop-color:#F7B08F"/>
					<stop  offset="0.5306" style="stop-color:#8C3C1C"/>
					<stop  offset="0.5755" style="stop-color:#944525"/>
					<stop  offset="0.648" style="stop-color:#AA5C3C"/>
					<stop  offset="0.7384" style="stop-color:#CD8362"/>
					<stop  offset="0.8284" style="stop-color:#F7B08F"/>
				</linearGradient>
				<path class="st2" d="M133.6,279.8c-2.8,4.1-6.1,6.1-10,6.1c-0.9-0.1-1.7-0.3-2.5-0.8c-1.2-0.7-2.5-1.2-3.9-1.4
					c-0.6,0-1.2,0.2-1.6,0.6c-0.5,0.5-0.8,1.1-1,1.8c-0.7,2.1-1,4.3-0.9,6.6v13.1c-0.1,1.2,0.4,2.3,1.3,3c0.4,0.2,0.8,0.3,1.2,0.3
					c0.5,0,1-0.1,1.5-0.4c-0.5,0.4-0.9,0.9-1.3,1.5c-0.4,0.6-0.9,1.1-1.5,1.6c-1.2,1.2-2.9,1.9-4.6,1.9c-0.9,0-1.7-0.3-2.3-0.9
					c-0.6-0.5-1-1.3-1-2.1V291c0-0.8,0-1.6,0-2.4c0-0.7-0.1-1.5-0.2-2.2c-0.4-1.4-1.7-2.1-3.7-2.1c-1,0-2,0.2-2.9,0.5
					c0.9-0.4,1.6-0.9,2.3-1.6c1.1-1.1,2.4-2.1,3.8-2.9c1.1-0.5,2.3-0.7,3.5-0.8c0.7,0,1.4,0.1,2.1,0.4c0.5,0.2,0.9,0.6,1.2,1.1
					c0.5,1.1,0.8,2.3,0.7,3.5c0.7-0.5,1.4-1.1,2.2-1.7s1.6-1.2,2.4-1.8c1.5-1.2,3.4-1.9,5.3-2c1,0,1.9,0.3,2.8,0.8
					c1,0.5,1.7,0.9,2.2,1.1c0.4,0.2,0.9,0.3,1.3,0.3C131.2,281,132.5,280.5,133.6,279.8z"/>
				
					<linearGradient id="SVGID_5_" gradientUnits="userSpaceOnUse" x1="174.57" y1="19.7429" x2="193.97" y2="19.7429" gradientTransform="matrix(1 0 0 -1 -43.49 304.07)">
					<stop  offset="0.2898" style="stop-color:#F7B08F"/>
					<stop  offset="0.6945" style="stop-color:#8C3C1C"/>
					<stop  offset="0.99" style="stop-color:#F7B08F"/>
				</linearGradient>
				<path class="st3" d="M150.5,308.8c-0.7,0.5-1.4,1.1-2,1.7c-0.6,0.6-1.3,1.1-2,1.6c-1.4,1-3,1.5-4.7,1.6c-1,0.1-2.1-0.1-3-0.6
					c-1.2-0.9-1.8-2.5-1.8-4.8V292c0-2.5-0.4-4.1-1.3-4.8c-0.4-0.3-0.8-0.5-1.3-0.5c-0.4,0-0.8,0-1.2,0.1l-1,0.2l-1,0.2
					c1.1-0.9,2.2-1.7,3.2-2.4s1.8-1.3,2.5-1.8s1.7-1.2,2.9-2c1.2-0.9,2.6-1.7,3.9-2.4v24.1c-0.1,1.5,0,3,0.4,4.4
					c0.6,1.3,2,1.9,4.2,1.9C149.1,309,149.8,308.9,150.5,308.8z M143.3,255l0.2,3.9v1.8c0,1.1-0.1,1.8-0.4,2
					c-0.3,0.2-0.6,0.5-0.9,0.7c-1.3,0.9-3.1,2.1-5.5,3.7c0.1-2.3,0.2-3.5,0.2-3.5s0-1.4-0.2-3.9L143.3,255z"/>
				
					<linearGradient id="SVGID_6_" gradientUnits="userSpaceOnUse" x1="196.39" y1="7.584" x2="222.36" y2="7.584" gradientTransform="matrix(1 0 0 -1 -43.49 304.07)">
					<stop  offset="0.17" style="stop-color:#F7B08F"/>
					<stop  offset="0.5339" style="stop-color:#8C3C1C"/>
					<stop  offset="0.5932" style="stop-color:#964727"/>
					<stop  offset="0.6984" style="stop-color:#B26645"/>
					<stop  offset="0.8364" style="stop-color:#DF9675"/>
					<stop  offset="0.9026" style="stop-color:#F7B08F"/>
				</linearGradient>
				<path class="st4" d="M178.9,306.7c-3,3.4-7.1,5.7-11.6,6.5c-1.3,0.2-2.7,0.3-4,0.3c-1.6,0-3.1-0.5-4.4-1.3
					c-1.4-0.9-2.5-2-3.4-3.4c-1.8-3-2.6-6.4-2.5-9.8c0-2.5,1-5.4,2.9-8.5c1.8-3,4.2-5.6,7-7.6c3-2.2,5.8-3.3,8.4-3.3
					c1.3,0,2.6,0.5,3.4,1.5c0.8,0.9,1.3,2.1,1.3,3.4c0,1.2-0.3,2.4-0.8,3.5c-0.6,1.1-1.3,2.1-2.1,3.1c-0.9,1-1.9,2-3,2.9
					c-1.1,0.9-2.3,1.8-3.5,2.6c-1.7,1.1-3.8,2.4-6.3,3.9c0.6,2.5,1.9,4.7,3.9,6.4c2,1.6,4.6,2.4,7.1,2.2
					C173.9,308.8,176.6,308,178.9,306.7z M168.6,293c0.6-0.9,0.9-1.8,0.9-2.9c0-0.8-0.1-1.6-0.3-2.4c-0.2-0.6-0.5-1.2-0.9-1.7
					c-0.8-1.1-2.1-1.7-3.4-1.7c-3.5,0-5.2,3.5-5.2,10.6c0,1.2,0.1,2.5,0.3,3.7C164,297.5,166.8,295.6,168.6,293z"/>
				
					<linearGradient id="SVGID_7_" gradientUnits="userSpaceOnUse" x1="223.35" y1="7.4747" x2="263.04" y2="7.4747" gradientTransform="matrix(1 0 0 -1 -43.49 304.07)">
					<stop  offset="0.2115" style="stop-color:#F7B08F"/>
					<stop  offset="0.4806" style="stop-color:#8C3C1C"/>
					<stop  offset="0.5533" style="stop-color:#8F3F1F"/>
					<stop  offset="0.6127" style="stop-color:#984929"/>
					<stop  offset="0.6675" style="stop-color:#A85B3A"/>
					<stop  offset="0.7194" style="stop-color:#BE7352"/>
					<stop  offset="0.7689" style="stop-color:#DB9171"/>
					<stop  offset="0.8087" style="stop-color:#F7B08F"/>
				</linearGradient>
				<path class="st5" d="M186.7,310.7v-22c0.1-1.1-0.1-2.1-0.6-3.1c-0.7-0.9-1.8-1.4-2.9-1.4c-1.1,0-2.3,0.2-3.3,0.5
					c0.9-0.4,1.6-0.9,2.3-1.6c1.1-1.1,2.3-2.1,3.7-2.8c1.1-0.5,2.4-0.8,3.6-0.8c0.8-0.1,1.6,0.1,2.3,0.5c0.5,0.3,0.9,0.8,1.1,1.4
					c0.4,1.3,0.5,2.7,0.4,4c4.3-3.8,8.3-5.6,12-5.6c1.9,0,3.8,0.7,5.3,1.9c1.5,1.2,2.4,3.1,2.4,5v16.9c-0.1,1.2,0.1,2.4,0.6,3.5
					c0.7,1.2,2,1.9,3.4,1.8c0.9,0,1.8-0.2,2.6-0.5c-1.3,1.2-2.7,2.3-4.2,3.4c-1.4,1-3,1.6-4.7,1.8c-1,0.1-2-0.2-2.8-0.7
					c-0.6-0.5-1-1.1-1.2-1.8c-0.3-1.6-0.4-3.3-0.4-4.9v-12.7c0-4.1-1.3-6.8-4-8.1c-1.1-0.5-2.3-0.7-3.4-0.7c-3.3,0-5.1,2.5-5.4,7.4
					c-0.1,1.2-0.1,2.3-0.1,3.3v10.6c-0.1,1.2,0.4,2.3,1.3,3c0.4,0.2,0.8,0.3,1.2,0.3c0.5,0,1-0.1,1.5-0.4l-1.7,1.5
					c-0.7,0.6-1.4,1.1-2.1,1.6c-1.8,1.2-3.2,1.9-4.3,1.9C187.6,313.7,186.7,312.7,186.7,310.7z"/>
				
					<linearGradient id="SVGID_8_" gradientUnits="userSpaceOnUse" x1="264.37" y1="12.0996" x2="286.41" y2="12.0996" gradientTransform="matrix(1 0 0 -1 -43.49 304.07)">
					<stop  offset="0.2188" style="stop-color:#F7B08F"/>
					<stop  offset="0.6976" style="stop-color:#8C3C1C"/>
				</linearGradient>
				<path class="st6" d="M220.9,283.4l4.4-3.5V275c0.9-0.6,1.8-1.3,2.6-2c0.4-0.4,0.9-0.7,1.3-1l1.1-0.6c0.6-0.3,1.1-0.6,1.6-1v8.3
					h10.9c-0.9,0.4-1.6,1-2.3,1.6c-2.3,2-3.8,3-4.4,3H232v18.3c0,4.2,1.2,6.6,3.6,7.3c0.7,0.2,1.3,0.3,2,0.3c0.9,0,1.8-0.1,2.7-0.5
					c0.7-0.3,1.3-0.6,1.8-0.8c-1.4,2.2-3.5,3.8-5.8,4.9c-1.3,0.6-2.7,0.9-4.2,0.9c-1.2,0.1-2.4-0.2-3.5-0.8c-0.8-0.5-1.5-1.2-2-2
					c-1-1.9-1.4-4-1.3-6.1v-21.2H220.9z"/>
				
					<linearGradient id="SVGID_9_" gradientUnits="userSpaceOnUse" x1="288.2" y1="31.945" x2="298.58" y2="31.945" gradientTransform="matrix(1 0 0 -1 -43.49 304.07)">
					<stop  offset="0" style="stop-color:#F7B08F"/>
					<stop  offset="0.1429" style="stop-color:#E8A07F"/>
					<stop  offset="0.422" style="stop-color:#C27656"/>
					<stop  offset="0.7598" style="stop-color:#8C3C1C"/>
				</linearGradient>
				<path class="st7" d="M248.2,281.6c2.4-2.4,3.5-4.8,3.5-7.3c0.1-0.7-0.1-1.3-0.5-1.8c-0.3-0.3-0.6-0.4-1-0.4
					c-0.3,0-0.6,0.1-0.8,0.3c-0.2,0.2-0.4,0.3-0.6,0.4c-0.2,0.1-0.4,0.2-0.6,0.3l-3.6-5.7c-0.1-0.1,0.3-0.4,1.1-1s1.5-1.1,2.1-1.5
					l1.6-1.1c0.6-0.4,1.2-0.8,1.9-1.1c0.3,0.5,0.6,1,0.9,1.5l1,1.5c0.6,1,1.1,2,1.5,3.1c0.2,0.9,0.4,1.9,0.3,2.8
					c0,1-0.2,1.9-0.6,2.9c-0.6,1.9-1.7,3.6-3.1,5c-0.5,0.5-1.2,0.9-1.8,1.3C249.1,280.9,248.7,281.2,248.2,281.6z"/>
				
					<linearGradient id="SVGID_10_" gradientUnits="userSpaceOnUse" x1="303.25" y1="15.7235" x2="338.6557" y2="15.7235" gradientTransform="matrix(1 0 0 -1 -43.49 304.07)">
					<stop  offset="0.252" style="stop-color:#F7B08F"/>
					<stop  offset="0.8048" style="stop-color:#8C3C1C"/>
				</linearGradient>
				<path class="st8" d="M284.9,271.8c0.8-0.8,1.2-1.3,1.2-1.7c0-0.4-0.2-0.7-0.5-0.9c-0.4-0.3-0.8-0.5-1.3-0.6
					c-0.6-0.2-1.1-0.4-1.7-0.5c-0.6-0.1-1.2-0.2-1.8-0.3c-1-0.1-2-0.2-3-0.2c-1,0-1.9,0.1-2.9,0.2c-1,0.1-2.1,0.5-3,0.9
					c-1.9,0.8-3.1,2.6-3.1,4.7c-0.1,1.7,0.3,3.5,1.1,5c0.8,1.2,1.8,2.3,3,3.1c1.3,0.9,2.7,1.6,4.2,2c1.6,0.6,3.2,1.1,4.9,1.5
					s3.3,1,4.9,1.5c1.5,0.5,2.9,1.2,4.2,2.1c2.7,1.7,4.2,4.7,4.1,7.9c0,3.3-1.4,6.4-4.2,9.2c-2.7,2.6-6,4.7-9.5,6
					c-3.3,1.3-6.8,2.1-10.3,2.1c-3.1,0-6.2-0.7-9-2c-1.6-0.8-2.4-1.7-2.4-2.8c0-1.8,2.6-4.1,7.8-6.9c-0.6,0.6-0.9,1.3-1,2.2
					c0,0.7,0.2,1.3,0.7,1.8c0.5,0.5,1.1,0.9,1.7,1.3c0.8,0.4,1.6,0.7,2.4,0.9c0.9,0.2,1.7,0.4,2.6,0.5c1.4,0.2,2.9,0.4,4.3,0.4
					c1.3,0,2.6-0.1,3.8-0.4c1.2-0.2,2.3-0.6,3.4-1.3c2.2-1.3,3.5-3.7,3.3-6.3c0-4.4-2.8-7.7-8.4-9.8c-1.6-0.6-3.2-1.2-4.9-1.7
					s-3.3-1.1-4.9-1.6c-1.5-0.5-2.9-1.2-4.2-2c-2.6-1.5-4.2-4.2-4.2-7.2c0-2.5,1.4-5,4.2-7.7c2.7-2.4,5.8-4.4,9.1-5.9
					c2.8-1.4,5.8-2.2,8.9-2.4c1.8,0,3.6,0.2,5.3,0.6c0.9,0.2,1.7,0.5,2.5,0.9c0.3,0.1,0.5,0.4,0.5,0.8c0,0.4-0.2,0.7-0.5,1
					c-0.4,0.5-0.8,0.9-1.2,1.3c-0.5,0.5-1,0.9-1.6,1.4s-1.2,0.9-1.8,1.3C286.8,270.7,285.8,271.3,284.9,271.8z"/>
				
					<linearGradient id="SVGID_11_" gradientUnits="userSpaceOnUse" x1="339.8" y1="20.2207" x2="378.6" y2="20.2207" gradientTransform="matrix(1 0 0 -1 -43.49 304.07)">
					<stop  offset="0.1916" style="stop-color:#F7B08F"/>
					<stop  offset="0.8497" style="stop-color:#8C3C1C"/>
				</linearGradient>
				<path class="st9" d="M308.9,305.5c0,2.3,0.7,3.4,2,3.4c0.7-0.1,1.4-0.3,2.1-0.6c-0.8,1.9-2.2,3.5-4,4.5
					c-0.9,0.5-1.9,0.8-2.9,0.7c-0.8,0-1.6-0.3-2.2-0.8c-0.4-0.5-0.8-1.1-1-1.8c-0.4-1.4-0.6-2.8-0.5-4.3v-39c0-2.4-0.4-4-1.3-4.8
					c-0.4-0.4-0.9-0.6-1.5-0.5c-1.1,0-2.2,0.2-3.2,0.5c2.8-2.2,7-5.1,12.6-8.6v31.3c2.5-2.3,5.5-4.1,8.8-5.1c1-0.3,2.1-0.5,3.2-0.5
					c1,0,2,0.2,2.9,0.5c0.9,0.3,1.7,0.8,2.5,1.4c1.5,1.2,2.4,3,2.4,5v17.4c0,3,0.7,4.7,2.2,5c0.4,0.1,0.9,0.1,1.3,0.1
					c1-0.1,2.1-0.4,3-0.9c-1.6,2.2-3.9,3.9-6.6,4.8c-0.9,0.3-1.8,0.4-2.8,0.4c-0.8,0.1-1.7-0.2-2.3-0.7c-0.5-0.5-0.9-1.1-1.1-1.8
					c-0.2-0.8-0.3-1.6-0.3-2.4v-15.3c0-3.5-0.5-5.8-1.6-7s-2.8-1.7-5.4-1.7c-3.5,0-5.5,2.4-5.9,7.3c-0.1,1.2-0.1,2.4-0.1,3.4
					L308.9,305.5z"/>
				
					<linearGradient id="SVGID_12_" gradientUnits="userSpaceOnUse" x1="380.96" y1="7.7198" x2="413.6409" y2="7.7198" gradientTransform="matrix(1 0 0 -1 -43.49 304.07)">
					<stop  offset="0.17" style="stop-color:#F7B08F"/>
					<stop  offset="0.51" style="stop-color:#8C3C1C"/>
					<stop  offset="0.99" style="stop-color:#F7B08F"/>
				</linearGradient>
				<path class="st10" d="M366.5,283.5c1.2,1.3,2.1,2.9,2.7,4.5c0.6,1.6,1,3.4,1,5.1c0,1.7-0.3,3.4-0.8,5c-0.5,1.6-1.2,3.2-2.1,4.7
					c-0.9,1.5-2,2.9-3.2,4.2c-1.2,1.3-2.5,2.5-4,3.4c-2.7,2-6,3-9.4,3.1c-3.6,0-7.1-1.6-9.5-4.3c-2.5-2.6-3.8-6.1-3.8-9.8
					c0.1-3.4,1.1-6.7,2.9-9.6c2.6-4.6,6.8-8.1,11.8-9.9c1.6-0.6,3.3-0.9,5-0.9c1.8,0,3.5,0.4,5.1,1.2
					C363.9,281.1,365.3,282.2,366.5,283.5z M350.3,283.7c-2.2-0.1-4.2,1.3-5,3.3c-0.8,1.8-1.3,3.9-1.2,5.9c0,2.1,0.3,4.1,0.9,6.1
					c0.6,1.8,1.4,3.5,2.6,5c2.2,3.2,5.9,5.1,9.8,5c2.3,0,4.3-1.4,5.1-3.5c0.8-1.9,1.2-3.9,1.1-6c0.1-4.1-1.2-8-3.7-11.2
					C357.6,285.3,354.1,283.6,350.3,283.7z"/>
				
					<linearGradient id="SVGID_13_" gradientUnits="userSpaceOnUse" x1="415.98" y1="-2.485" x2="452.15" y2="-2.485" gradientTransform="matrix(1 0 0 -1 -43.49 304.07)">
					<stop  offset="0.1676" style="stop-color:#F7B08F"/>
					<stop  offset="0.5724" style="stop-color:#8C3C1C"/>
					<stop  offset="0.99" style="stop-color:#F7B08F"/>
				</linearGradient>
				<path class="st11" d="M372.5,284.7c4-3.6,7.2-5.4,9.7-5.4c2.1,0,3.2,1.1,3.5,3.4c0.1,0.6,0.1,1.3,0.1,1.9
					c1.6-1.2,3.2-2.3,4.9-3.3c1.9-1.1,4-1.7,6.1-1.8c1.8,0,3.6,0.4,5.3,1.1c1.5,0.7,2.8,1.8,3.8,3.1c1.8,2.5,2.8,5.9,2.8,10.1
					c0,5-2.2,9.5-6.7,13.6c-2.6,2.4-5.7,4.2-9.1,5.2c-1.4,0.4-2.9,0.7-4.3,0.7c-0.9,0-1.8,0-2.6-0.2v9.8c0.1,2.2-0.8,4.4-2.4,6h8.3
					c-0.5,0.1-0.9,0.4-1.2,0.8l-1.9,1.6c-1.8,1.5-3,2.3-3.5,2.3h-8.3c1.6-2.1,2.4-4.7,2.4-7.4v-37.9c0.1-1-0.1-2.1-0.5-3
					c-0.6-0.9-1.7-1.5-2.8-1.4C374.7,284.1,373.5,284.3,372.5,284.7z M385.8,304c1.8,3.2,5.2,5.2,8.9,5c4.2,0,6.6-2.1,7.1-6.2
					c0.2-1.5,0.3-2.9,0.3-4.4c0-1.7-0.2-3.4-0.6-5.1c-0.4-1.6-1.1-3.2-2-4.6c-2-2.9-5-4.3-9.1-4.3c-1.8,0-3.3,1-4.6,3.1L385.8,304z"
					/>
				<linearGradient id="SVGID_14_" gradientUnits="userSpaceOnUse" x1="232.9275" y1="83.7303" x2="218.3743" y2="83.2196">
					<stop  offset="0.17" style="stop-color:#F7B08F"/>
					<stop  offset="0.51" style="stop-color:#8C3C1C"/>
					<stop  offset="0.99" style="stop-color:#F7B08F"/>
				</linearGradient>
				<path class="st12" d="M225,79.8l-3.2-7.4l-3.2,7.4c-1.9,4.5-1.1,9.7,2.1,13.3l1,1.2l1-1.2C226,89.5,226.9,84.3,225,79.8z"/>
				<linearGradient id="SVGID_15_" gradientUnits="userSpaceOnUse" x1="194.8135" y1="89.3617" x2="187.4092" y2="96.5106">
					<stop  offset="0.17" style="stop-color:#F7B08F"/>
					<stop  offset="0.6062" style="stop-color:#8C3C1C"/>
					<stop  offset="0.99" style="stop-color:#F7B08F"/>
				</linearGradient>
				<path class="st13" d="M189.3,92.8l-3.1-2.1l0.6,3.6c0.4,2.2,2,4,4.2,4.6l0.7,0.2l0.1-0.7C192.2,96.3,191.2,94,189.3,92.8z"/>
				<linearGradient id="SVGID_16_" gradientUnits="userSpaceOnUse" x1="264.1753" y1="101.3285" x2="252.9413" y2="93.9242">
					<stop  offset="0.17" style="stop-color:#F7B08F"/>
					<stop  offset="0.6266" style="stop-color:#8C3C1C"/>
					<stop  offset="0.9132" style="stop-color:#F7B08F"/>
				</linearGradient>
				<path class="st14" d="M252.4,99l0.1,0.7l0.7-0.2c2.1-0.7,3.7-2.5,4-4.8l0.5-3.7l-3,2.2C252.9,94.6,252,96.8,252.4,99z"/>
				<linearGradient id="SVGID_17_" gradientUnits="userSpaceOnUse" x1="137.1031" y1="125.4702" x2="136.8478" y2="143.9808">
					<stop  offset="0.17" style="stop-color:#F7B08F"/>
					<stop  offset="0.51" style="stop-color:#8C3C1C"/>
					<stop  offset="0.99" style="stop-color:#F7B08F"/>
				</linearGradient>
				<path class="st15" d="M133.4,137l-7.4,3.2l7.4,3.2c4.5,1.9,9.7,1.1,13.3-2.1l1.2-1l-1.2-1C143.1,136,137.9,135.1,133.4,137z"/>
				<linearGradient id="SVGID_18_" gradientUnits="userSpaceOnUse" x1="304.5365" y1="151.7765" x2="304.9195" y2="138.3722">
					<stop  offset="0.17" style="stop-color:#F7B08F"/>
					<stop  offset="0.51" style="stop-color:#8C3C1C"/>
					<stop  offset="0.99" style="stop-color:#F7B08F"/>
				</linearGradient>
				<path class="st16" d="M295.1,139.1l-1.2,1l1.2,1c3.7,3.2,8.9,4.1,13.3,2.1l7.4-3.2l-7.4-3.1
					C303.9,135.1,298.7,135.9,295.1,139.1z"/>
				<linearGradient id="SVGID_19_" gradientUnits="userSpaceOnUse" x1="168.3967" y1="99.0995" x2="155.2478" y2="110.7166">
					<stop  offset="0.2948" style="stop-color:#F7B08F"/>
					<stop  offset="0.6199" style="stop-color:#8C3C1C"/>
					<stop  offset="0.99" style="stop-color:#F7B08F"/>
				</linearGradient>
				<path class="st17" d="M156.8,104.4l-7.5-3.1l2.9,7.5c1.8,4.5,6,7.7,10.9,8l1.6,0.1l-0.1-1.6
					C164.3,110.6,161.3,106.3,156.8,104.4z"/>
				<linearGradient id="SVGID_20_" gradientUnits="userSpaceOnUse" x1="300.647" y1="118.3643" x2="285.3279" y2="108.4069">
					<stop  offset="0.17" style="stop-color:#F7B08F"/>
					<stop  offset="0.7047" style="stop-color:#8C3C1C"/>
					<stop  offset="1" style="stop-color:#F7B08F"/>
				</linearGradient>
				<path class="st18" d="M286.4,104.3c-4.5,1.8-7.6,6.1-7.8,11l-0.1,1.6l1.5-0.1c4.9-0.3,9.1-3.5,10.9-8l2.9-7.5L286.4,104.3z"/>
				
					<linearGradient id="SVGID_21_" gradientUnits="userSpaceOnUse" x1="223.05" y1="119.1246" x2="307.421" y2="119.1246" gradientTransform="matrix(1 0 0 -1 -43.49 304.07)">
					<stop  offset="0.17" style="stop-color:#F7B08F"/>
					<stop  offset="0.51" style="stop-color:#8C3C1C"/>
					<stop  offset="0.99" style="stop-color:#F7B08F"/>
				</linearGradient>
				<path class="st19" d="M262.2,205.7c-5.8-14.8-15.3-18.6-25.3-20.1V185c0-24.8-4.1-49.9-12-55.8c27,2.1,32.1,16.1,32.3,16.8h0.1
					c2,4.2,3.4,8.6,4.2,13.2v-22.6c-0.1,1.6-0.8,3.1-1.8,4.2c-0.2,0.2-0.4,0.3-0.7,0.4c-3.6-5.4-13.2-15.1-37.2-16
					c-32.8-1.3-40.5,22.4-40.6,22.6c-1.9,5.6-1.9,11.7,0.1,17.4c1.6,4.2,4.4,7.9,8,10.7l0,0c1.7,1.6,3.7,2.9,5.8,4l0.5,0.3
					c3.1,2,6.4,3.5,9.9,4.6v0.3c0,25,4.2,50.2,12.2,56c-3.9-0.3-7.7-1.1-11.4-2.4c-6.8-2.3-13-6.3-17.8-11.6
					c-3.4-4.4-5.1-9.9-4.9-15.4l-3.8-0.2c-0.1,1.2,0,2.4,0.1,3.6l-0.2,17.8c0.1-1.9,0.9-3.8,2.2-5.2c0.5-0.5,1.3-0.7,2-0.5
					c0.5,0.8,1,1.5,1.5,2.2l0.1,0.1c5.3,5.8,12,10.2,19.5,12.6c4.7,1.6,9.6,2.5,14.5,2.6c1.6,0,3.2-0.1,4.7-0.3h0.6
					c9.8,0,27.1-6.3,34.9-17.3C264.3,220.8,265.2,213.3,262.2,205.7z M233,185v0.2c-1.5-0.1-3.1-0.3-4.6-0.4
					c-4.5-0.3-9-0.8-13.4-1.8h-0.1c-1-0.3-2-0.5-2.9-0.7H212c-1-0.3-1.9-0.5-2.8-0.8c0.4-31,7.1-49.9,11.9-49.9
					C226.1,131.6,233,151.9,233,185z M184.8,163.8c-1.7-4.8-1.7-10.1,0-14.9c0.3-0.8,6.4-19.3,32.9-20c-7.6,5.2-11.8,27.8-12.3,51.3
					c-3-1.1-5.9-2.4-8.8-3.9l-0.1-0.1C192.1,173.5,187.1,170,184.8,163.8L184.8,163.8z M209.1,185.6l0.5,0.1l1.2,0.3h0.1
					c0.9,0.3,1.9,0.5,3,0.8c2.4,0.7,4.8,1.6,7,2.8c4.3,2.2,8.3,5,11.8,8.3c-1.5,25.4-7.3,40.5-11.6,40.5
					C216.1,238.3,209.2,218.3,209.1,185.6L209.1,185.6z M241.1,226.5c-1.7,4.4-4.6,8.1-8.5,10.8c-2.2,1.5-4.7,2.6-7.3,3.1
					c5.8-5.1,9.5-20.7,10.9-38.6c2.4,3,4.2,6.5,5.2,10.2C242.8,216.7,242.7,221.8,241.1,226.5L241.1,226.5z"/>
			</g>
		</g>
	</g>
</g>
</svg>
